<svg width="21" height="21" viewBox="0 0 21 21" fill="none" xmlns="http://www.w3.org/2000/svg">
<g clip-path="url(#clip0_101_161)">
<path d="M20.5 10.5C20.5 16.0228 16.0228 20.5 10.5 20.5C4.97719 20.5 0.5 16.0228 0.5 10.5C0.5 10.5024 10.5 0.501094 10.5 0.5C16.0228 0.5 20.5 4.97719 20.5 10.5Z" fill="#012169"/>
<path d="M10.4731 10.5H10.4999C10.4999 10.491 10.4999 10.4823 10.4999 10.4733C10.491 10.4822 10.4821 10.4911 10.4731 10.5Z" fill="#F0F0F0"/>
<path d="M10.5 5.71738C10.5 3.95781 10.5 2.80488 10.5 0.5H10.4983C4.97625 0.500938 0.5 4.9777 0.5 10.5H5.71738V7.56207L8.65535 10.5H10.4733C10.4822 10.4911 10.4911 10.4822 10.5 10.4732C10.5 9.79953 10.5 9.1984 10.5 8.65539L7.56203 5.71738H10.5Z" fill="#F0F0F0"/>
<path d="M5.55929 1.80432C3.99526 2.69491 2.69503 3.99514 1.80444 5.55917V10.5H4.41315V4.41311V4.41303H10.5001C10.5001 3.59026 10.5001 2.80643 10.5001 1.80432H5.55929Z" fill="#D80027"/>
<path d="M10.5001 9.27026L6.94726 5.71741C6.94726 5.71741 5.71753 5.71749 5.71753 5.71741V5.71749L10.5001 10.5H10.5001C10.5001 10.5 10.5001 9.65206 10.5001 9.27026Z" fill="#D80027"/>
<path d="M17.8177 7.92029L18.0335 8.58458H18.732L18.1669 8.99513L18.3828 9.65939L17.8177 9.24888L17.2526 9.65939L17.4684 8.99513L16.9033 8.58458H17.6018L17.8177 7.92029Z" fill="#D80027"/>
<path d="M15.3209 12.7028L15.6447 13.6993H16.6924L15.8448 14.3151L16.1686 15.3115L15.3209 14.6957L14.4733 15.3115L14.7971 14.3151L13.9495 13.6993H14.9972L15.3209 12.7028Z" fill="#D80027"/>
<path d="M15.4151 4.87677L15.6849 5.7072H16.558L15.8516 6.22029L16.1214 7.05068L15.4151 6.53743L14.7087 7.05068L14.9785 6.22029L14.2722 5.7072H15.1453L15.4151 4.87677Z" fill="#D80027"/>
<path d="M13.0126 7.8913L13.3363 8.88778H14.3841L13.5364 9.50356L13.8603 10.5L13.0126 9.88419L12.1649 10.5L12.4888 9.50356L11.6411 8.88778H12.6888L13.0126 7.8913Z" fill="#D80027"/>
</g>
<defs>
<clipPath id="clip0_101_161">
<rect width="20" height="20" fill="white" transform="translate(0.5 0.5)"/>
</clipPath>
</defs>
</svg>
