<svg width="21" height="21" viewBox="0 0 21 21" fill="none" xmlns="http://www.w3.org/2000/svg">
<g clip-path="url(#clip0_101_211)">
<path d="M10.5 20.5C16.0228 20.5 20.5 16.0228 20.5 10.5C20.5 4.97715 16.0228 0.5 10.5 0.5C4.97715 0.5 0.5 4.97715 0.5 10.5C0.5 16.0228 4.97715 20.5 10.5 20.5Z" fill="#F0F0F0"/>
<path d="M20.5 10.5C20.5 6.20037 17.7863 2.5349 13.9783 1.12201V19.8781C17.7863 18.4651 20.5 14.7997 20.5 10.5Z" fill="#FF9811"/>
<path d="M0.5 10.5C0.5 14.7997 3.21375 18.4651 7.02176 19.878V1.12201C3.21375 2.5349 0.5 6.20037 0.5 10.5Z" fill="#6DA544"/>
</g>
<defs>
<clipPath id="clip0_101_211">
<rect width="20" height="20" fill="white" transform="translate(0.5 0.5)"/>
</clipPath>
</defs>
</svg>
